<?xml version="1.0" encoding="UTF-8"?>
<svg id="Layer_2" data-name="Layer 2" xmlns="http://www.w3.org/2000/svg" viewBox="0 0 352.26 126.43">
  <defs>
    <style>
      .cls-1 {
        fill: #926bae;
        stroke-width: 0px;
      }
    </style>
  </defs>
  <g id="Layer_1-2" data-name="Layer 1">
    <g>
      <path class="cls-1" d="M132.11,109.12c-2.16-9.26-26.78-11.92-29.68-12.5-.6-.1-.55-.44-.97-1.11-1.32-2.44-5.33-9.78-6.53-12.01-.56-1-.2-2.37.05-3.69,4.2-20.54,6.6-34.06,1.71-58.61-1.64-10.6-9.23-24-21.32-20.69-16.95,5.96-10.44,31.21-7.78,45.34,1.76,7,.85,22.67.67,26.43,0,.68-.84.57-1.34.69-.84.1-2.21.27-3.21.36-1.55.19-1.89-.53-1.83-1.97,0-9.08-.84-17.17-2.29-24.24C50.65-3.09,3.58-4.84,22.56,43.2c1,2.05,4.04,10.39,6.36,19.28,2.08,7.81,3.97,15.59,4.88,23.68.45,4.32.58,6.32.44,9.79-.04.39.1.53-.66.64-.1.01-.21.03-.33.04-9.25.91-20.11,2.45-28.06,7.16-37.13,29.03,137.35,29.38,126.92,5.38v-.05ZM100,118.25c.12,1.17-6.85,1.01-11.38,1.32-15.93.53-43.25.29-47.73-.8-.62-.24-.44-.79-.43-1.59,1.81-20.78-1.4-53.82-11.38-75.04-1.19-2.68-2.66-6.13-3.73-9.68-1.94-6.68-2.93-14.02,3.31-16.69,16.91-3.65,23.15,21.19,25.81,40.81.91,6.86,1.36,13.17,1.64,17.61.04,2.13.3,5.51,2.8,6.1,1.59.3,3.74-1.01,5.6-1.06,4.31-.26,9.81.09,13.39,1.19,3.09,1.29,5.69-.74,4.29-4.02-.89-1.86-4.04-2.13-5.89-2.72-.33-.11-.53-.1-.56-.4-.13-8.01-.5-18.62-1.51-29.08-.54-7.9-3.72-17.1-3.28-25.87.29-4.96,1.88-11.58,7.63-11.69,2.03-.11,4,.09,5.55,1.4,1.59,1.03,3.59,5.2,4.56,8.08,6.69,18.64,6.39,39.75.07,63.66-.76,2.19-1.14,5.06.45,6.83,6.15,6.84,11.97,19.48,10.79,31.59v.04Z"/>
      <ellipse class="cls-1" cx="57.37" cy="103.94" rx="4.3" ry="6.57"/>
      <ellipse class="cls-1" cx="84.35" cy="101.99" rx="4.3" ry="5.83"/>
      <ellipse class="cls-1" cx="72.74" cy="112.16" rx="5.09" ry="3.59"/>
      <g>
        <path class="cls-1" d="M145.41,83.81c-1.77.71-3.48,1.28-5.14,1.71-1.66.43-3.25.74-4.78.94-1.52.19-2.93.29-4.21.29-15.55,0-21.62-7.98-18.23-23.94.97-4.6,2.39-8.46,4.26-11.56,1.87-3.1,4.1-5.57,6.7-7.43,2.6-1.85,5.53-3.17,8.8-3.95,3.27-.78,6.81-1.17,10.62-1.17,1.25,0,2.55.09,3.92.26,1.37.17,2.67.41,3.92.7,1.25.29,2.38.62,3.4.99,1.02.36,1.81.72,2.36,1.06l-2.54,12.1c-.62-.31-1.52-.61-2.67-.91-1.16-.29-2.39-.55-3.69-.75-1.3-.21-2.59-.38-3.87-.52-1.28-.14-2.34-.21-3.17-.21-1.97,0-3.75.16-5.32.49-1.58.33-2.96.92-4.15,1.77-1.2.85-2.21,2.01-3.04,3.48-.83,1.47-1.49,3.35-1.97,5.63-.45,2.08-.58,3.83-.39,5.25.19,1.42.66,2.56,1.4,3.43.74.87,1.77,1.49,3.06,1.87,1.3.38,2.83.57,4.6.57.45,0,.95-.02,1.51-.05.55-.03,1.16-.09,1.82-.16l.83-3.79h-6.49l2.54-12.05h20.15l-4.93,23.32c-1.77,1.04-3.53,1.91-5.3,2.62Z"/>
        <path class="cls-1" d="M183.01,39.38c2.74,0,5.24.26,7.5.78,2.27.52,4.15,1.42,5.63,2.7,1.49,1.28,2.5,3.02,3.04,5.22.54,2.2.44,4.98-.29,8.34-.73,3.43-1.84,6.31-3.35,8.65-1.51,2.34-3.5,4.16-6,5.48l5.14,15.58h-16.51l-3.58-12.78h-2.54l-2.7,12.78h-13.97l9.92-46.74h17.71ZM176.57,52.05l-1.82,8.52h2.49c1.21,0,2.27-.06,3.17-.18.9-.12,1.66-.34,2.29-.65s1.12-.74,1.51-1.3c.38-.55.66-1.25.83-2.08.21-1,.21-1.79,0-2.36-.21-.57-.58-1-1.12-1.3-.54-.29-1.22-.48-2.05-.55-.83-.07-1.77-.1-2.8-.1h-2.49Z"/>
        <path class="cls-1" d="M235.67,39.38l4.36,46.74h-14.59l-.26-6.02h-11.37l-2.8,6.02h-14.54l24.15-46.74h15.06ZM219.47,68.05h5.14l-.42-10.08-4.73,10.08Z"/>
        <path class="cls-1" d="M272.13,39.38c2.18,0,4.32.17,6.41.49,2.09.33,3.91.95,5.45,1.87,1.54.92,2.67,2.21,3.38,3.87.71,1.66.79,3.83.23,6.49-.42,1.97-1.19,3.72-2.31,5.25-1.12,1.52-2.52,2.86-4.18,4,1.59,1.04,2.74,2.41,3.45,4.1.71,1.7.79,3.83.23,6.39-.62,2.91-1.68,5.28-3.17,7.11-1.49,1.83-3.24,3.29-5.25,4.36-2.01,1.07-4.2,1.81-6.57,2.21-2.37.4-4.74.6-7.09.6h-19.06l9.92-46.74h18.54ZM260.13,73.66h6.7c1.07,0,2.02-.13,2.83-.39s1.36-.98,1.64-2.16c.21-1,0-1.64-.65-1.92-.64-.28-1.57-.42-2.78-.42h-6.7l-1.04,4.88ZM263.76,56.52h5.66c1.07,0,1.95-.13,2.62-.39.68-.26,1.12-.89,1.33-1.9.17-.83,0-1.4-.49-1.71-.5-.31-1.34-.47-2.52-.47h-5.66l-.93,4.47Z"/>
        <path class="cls-1" d="M310.82,39.38l-9.92,46.74h-13.92l9.92-46.74h13.92Z"/>
        <path class="cls-1" d="M324.06,52.26h-11.32l2.75-12.88h36.77l-2.75,12.88h-11.48l-7.17,33.86h-13.97l7.17-33.86Z"/>
      </g>
    </g>
  </g>
</svg>