<?xml version="1.0" encoding="UTF-8"?>
<svg id="Layer_2" data-name="Layer 2" xmlns="http://www.w3.org/2000/svg" xmlns:xlink="http://www.w3.org/1999/xlink" viewBox="0 0 240.12 254.38">
  <defs>
    <style>
      .cls-1 {
        fill: url(#linear-gradient);
      }

      .cls-1, .cls-2 {
        stroke-width: 0px;
      }

      .cls-2 {
        fill: #5f4377;
      }
    </style>
    <linearGradient id="linear-gradient" x1="66.56" y1="6.41" x2="175.14" y2="165.51" gradientUnits="userSpaceOnUse">
      <stop offset="0" stop-color="#88a1d3"/>
      <stop offset="1" stop-color="#684a7c"/>
    </linearGradient>
  </defs>
  <g id="Layer_1-2" data-name="Layer 1">
    <g>
      <path class="cls-2" d="M33.27,251.44c-1.77.71-3.48,1.28-5.14,1.71-1.66.43-3.25.74-4.78.93-1.52.19-2.93.29-4.21.29-15.55,0-21.62-7.98-18.23-23.94.97-4.6,2.39-8.46,4.26-11.55,1.87-3.1,4.1-5.57,6.7-7.43,2.6-1.85,5.53-3.17,8.8-3.95,3.27-.78,6.81-1.17,10.62-1.17,1.25,0,2.55.09,3.92.26,1.37.17,2.67.41,3.92.7,1.25.29,2.38.62,3.4.99,1.02.36,1.81.72,2.36,1.06l-2.54,12.1c-.62-.31-1.52-.61-2.67-.91-1.16-.29-2.39-.54-3.69-.75-1.3-.21-2.59-.38-3.87-.52-1.28-.14-2.34-.21-3.17-.21-1.97,0-3.75.16-5.32.49-1.58.33-2.96.92-4.15,1.77-1.2.85-2.21,2.01-3.04,3.48-.83,1.47-1.49,3.35-1.97,5.63-.45,2.08-.58,3.83-.39,5.25.19,1.42.66,2.56,1.4,3.43.74.87,1.77,1.49,3.06,1.87,1.3.38,2.83.57,4.6.57.45,0,.95-.02,1.51-.05s1.16-.09,1.82-.16l.83-3.79h-6.49l2.54-12.05h20.15l-4.93,23.32c-1.77,1.04-3.53,1.91-5.3,2.62Z"/>
      <path class="cls-2" d="M70.87,207.01c2.74,0,5.24.26,7.5.78,2.27.52,4.15,1.42,5.63,2.7,1.49,1.28,2.5,3.02,3.04,5.22.54,2.2.44,4.98-.29,8.33-.73,3.43-1.84,6.31-3.35,8.65-1.51,2.34-3.5,4.16-6,5.48l5.14,15.58h-16.51l-3.58-12.78h-2.54l-2.7,12.78h-13.97l9.92-46.74h17.71ZM64.43,219.69l-1.82,8.52h2.49c1.21,0,2.27-.06,3.17-.18.9-.12,1.66-.34,2.29-.65s1.12-.74,1.51-1.3c.38-.55.66-1.25.83-2.08.21-1,.21-1.79,0-2.36-.21-.57-.58-1-1.12-1.3-.54-.29-1.22-.48-2.05-.55-.83-.07-1.77-.1-2.8-.1h-2.49Z"/>
      <path class="cls-2" d="M123.53,207.01l4.36,46.74h-14.59l-.26-6.02h-11.37l-2.8,6.02h-14.54l24.15-46.74h15.06ZM107.32,235.68h5.14l-.42-10.08-4.73,10.08Z"/>
      <path class="cls-2" d="M159.98,207.01c2.18,0,4.32.17,6.41.49,2.09.33,3.91.95,5.45,1.87,1.54.92,2.67,2.21,3.38,3.87.71,1.66.79,3.83.23,6.49-.42,1.97-1.19,3.72-2.31,5.25-1.12,1.52-2.52,2.86-4.18,4,1.59,1.04,2.74,2.41,3.45,4.1.71,1.7.79,3.83.23,6.39-.62,2.91-1.68,5.28-3.17,7.11-1.49,1.83-3.24,3.29-5.25,4.36-2.01,1.07-4.2,1.81-6.57,2.21-2.37.4-4.74.6-7.09.6h-19.06l9.92-46.74h18.54ZM147.99,241.29h6.7c1.07,0,2.02-.13,2.83-.39s1.36-.98,1.64-2.16c.21-1,0-1.64-.65-1.92-.64-.28-1.57-.42-2.78-.42h-6.7l-1.04,4.88ZM151.62,224.15h5.66c1.07,0,1.95-.13,2.62-.39.68-.26,1.12-.89,1.33-1.9.17-.83,0-1.4-.49-1.71-.5-.31-1.34-.47-2.52-.47h-5.66l-.93,4.47Z"/>
      <path class="cls-2" d="M198.67,207.01l-9.92,46.74h-13.92l9.92-46.74h13.92Z"/>
      <path class="cls-2" d="M211.92,219.89h-11.32l2.75-12.88h36.77l-2.75,12.88h-11.48l-7.17,33.86h-13.97l7.17-33.86Z"/>
    </g>
    <path class="cls-1" d="M177.78,16.46C175.59,6.57,166.69-.37,156.56.02c-4.91.19-8.83,4.17-8.93,9.09l-1.15,54.94c-.06,3.05-2.81,5.33-5.83,4.85-4.06-.64-11-1.21-22.82-1.21s-18.8.58-22.86,1.22c-3,.48-5.72-1.82-5.79-4.86l-1.15-54.94c-.1-4.92-4.02-8.9-8.93-9.09-10.12-.39-19.02,6.56-21.22,16.45-8.28,37.31-5.67,66.28-5.67,110.19,0,50.37,65.61,48.16,65.61,48.16,0,0,65.61,2.21,65.61-48.16,0-43.91,2.61-72.88-5.67-110.19ZM96.88,104.58c0,4.44-3.6,8.04-8.04,8.04s-8.04-3.6-8.04-8.04v-5.77c0-4.44,3.6-8.04,8.04-8.04s8.04,3.6,8.04,8.04v5.77ZM154.87,104.58c0,4.44-3.6,8.04-8.04,8.04h0c-4.44,0-8.04-3.6-8.04-8.04v-5.77c0-4.44,3.6-8.04,8.04-8.04h0c4.44,0,8.04,3.6,8.04,8.04v5.77Z"/>
  </g>
</svg>